<svg width="258" height="147" viewBox="0 0 258 147" fill="none" xmlns="http://www.w3.org/2000/svg">
<path d="M0.0794427 84.6602V23.1072H9.07945H18.0794V76.2015V129.296L54.3295 128.875C88.012 128.484 91.0398 128.303 97.0795 126.317C108.739 122.483 114.443 118.141 135.829 96.817L156.079 76.6264L162.329 82.891L168.579 89.1556L146.579 110.983C123.08 134.298 118.785 137.506 103.769 142.956L96.5795 145.566L48.3295 145.89L0.0794427 146.213V84.6602ZM175.076 88.557C142.479 55.9299 115.083 29.325 111.815 27.1234C108.645 24.9876 103.47 22.1987 100.315 20.9258C94.6736 18.6495 93.8081 18.6033 47.5795 18.1094L0.57945 17.6072L0.289754 8.80361L1.52588e-05 0L47.7897 0.303609L95.5794 0.607218L104.341 3.74195C109.159 5.46606 115.684 8.38367 118.841 10.2255C123.048 12.6806 142.327 31.2578 191.079 79.8339L257.579 146.093L245.076 146.1L232.573 146.107L175.076 88.5572V88.557ZM181.567 63.0948L175.617 57.0824L204.092 28.5948L232.566 0.107225H245.067H257.569L223.079 34.6072C204.11 53.5822 188.349 69.1072 188.054 69.1072C187.758 69.1072 184.839 66.4016 181.567 63.0948V63.0948Z" fill="#353535"/>
</svg>
